<svg width="378.9px" height="169.8px" xmlns="http://www.w3.org/2000/svg" viewBox="60.55499267578125 -9.880001831054685 378.8900146484375 169.76000366210937" style="background: none" preserveAspectRatio="xMidYMid"><defs><linearGradient id="editing-glowing-gradient" x1="0.8280295144952539" x2="0.1719704855047462" y1="0.8773547901113858" y2="0.12264520988861416"><stop offset="0" stop-color="#689cc5"></stop><stop offset="1" stop-color="#5e6fa3"></stop></linearGradient><filter id="editing-glowing" x="-100%" y="-100%" width="300%" height="300%"><feGaussianBlur in="SourceGraphic" result="blur" stdDeviation="2"></feGaussianBlur><feMerge><feMergeNode in="blur"></feMergeNode><feMergeNode in="SourceGraphic"></feMergeNode></feMerge></filter></defs><g filter="url(#editing-glowing)"><g transform="matrix(1.4,0,0,2.3,109.2,311.8)"><path d="M -0.7 -106.1 L -2.1 -105.9 L -2.1 -105.9 Q -3.1 -105.6 -3.1 -105.3 L -3.1 -105.3 L -3.1 -105.3 Q -3.1 -105 -0.9 -104.2 L -0.9 -104.2 L -0.9 -104.2 Q 1.2 -103.3 3.2 -101.6 L 3.2 -101.6 L 3.2 -101.6 Q 5.1 -99.9 5.9 -97.5 L 5.9 -97.5 L 5.9 -97.5 Q 7.2 -93.8 7.2 -89.6 L 7.2 -89.6 L 7.2 -89.6 Q 7.2 -85.3 7.8 -82.6 L 7.8 -82.6 L 7.8 -82.6 Q 8.4 -79.9 9.3 -78.4 L 9.3 -78.4 L 9.3 -78.4 Q 11.1 -75.4 12.7 -74.6 L 12.7 -74.6 L 13.3 -74.3 L 13.3 -74.3 Q 13.8 -73.9 13.8 -73.4 L 13.8 -73.4 L 13.8 -73.4 Q 13.8 -72 9.4 -71 L 9.4 -71 L 9.4 -71 Q 5 -70 2.6 -70 L 2.6 -70 L 2.6 -70 Q -2.2 -70 -3.5 -73.8 L -3.5 -73.8 L -3.5 -73.8 Q -4.8 -77.6 -4.8 -86.9 L -4.8 -86.9 L -4.8 -91.8 L -4.8 -91.8 Q -4.8 -99.7 -9.5 -101.8 L -9.5 -101.8 L -9.5 -101.8 Q -11.3 -102.6 -13.8 -102.6 L -13.8 -102.6 L -13.9 -102.6 L -13.9 -102.6 Q -14.7 -102.6 -14.7 -104.2 L -14.7 -104.2 L -14.7 -104.2 Q -14.7 -105.8 -13.7 -107.4 L -13.7 -107.4 L -13.7 -107.4 Q -12.8 -109 -12.1 -109 L -12.1 -109 L -12.1 -109 Q -9.1 -109 -7 -110.1 L -7 -110.1 L -7 -110.1 Q -4.8 -111.3 -3.8 -112.9 L -3.8 -112.9 L -3.8 -112.9 Q -1.7 -116.3 -1.6 -118.7 L -1.6 -118.7 L -1.6 -119.9 L -1.6 -119.9 Q -1.6 -123.2 -2.6 -125.5 L -2.6 -125.5 L -2.6 -125.5 Q -3.7 -127.8 -5.3 -128.7 L -5.3 -128.7 L -5.3 -128.7 Q -8 -130.2 -10.8 -130.2 L -10.8 -130.2 L -10.8 -130.2 Q -13.6 -130.2 -15.4 -129.7 L -15.4 -129.7 L -15.4 -129.7 Q -17.9 -129 -17.9 -128.2 L -17.9 -128.2 L -17.9 -128.2 Q -18.7 -116.4 -18.7 -105.5 L -18.7 -105.5 L -18.7 -105.5 Q -18.7 -94.5 -18.4 -88.7 L -18.4 -88.7 L -18.4 -88.7 Q -18.1 -82.9 -17.8 -79.4 L -17.8 -79.4 L -17.8 -79.4 Q -17.5 -75.8 -17.5 -75.2 L -17.5 -75.2 L -17.5 -75.2 Q -17.5 -74 -18.1 -73.6 L -18.1 -73.6 L -18.1 -73.6 Q -21.8 -70.1 -29.7 -70.1 L -29.7 -70.1 L -29.7 -70.1 Q -31.1 -70.1 -31.1 -71 L -31.1 -71 L -31.1 -71 Q -31.1 -71.3 -30.8 -72.3 L -30.8 -72.3 L -30.8 -72.3 Q -29.9 -74.4 -29.5 -85.4 L -29.5 -85.4 L -29.5 -85.4 Q -29.1 -96.5 -29.1 -105.6 L -29.1 -105.6 L -29.1 -105.6 Q -29.1 -114.8 -29.5 -120.4 L -29.5 -120.4 L -29.5 -120.4 Q -30 -129 -31.3 -130.7 L -31.3 -130.7 L -31.3 -130.7 Q -32.2 -132 -32.2 -132.5 L -32.2 -132.5 L -32.2 -132.5 Q -32.2 -133 -31.3 -133.5 L -31.3 -133.5 L -31.3 -133.5 Q -25.5 -136.2 -10.4 -136.2 L -10.4 -136.2 L -10.4 -136.2 Q 1.8 -136.2 7.8 -129.4 L 7.8 -129.4 L 7.8 -129.4 Q 11 -125.6 11 -119.9 L 11 -119.9 L 11 -119.9 Q 11 -116.5 9.7 -113.8 L 9.7 -113.8 L 9.7 -113.8 Q 8.3 -111.1 6.4 -109.6 L 6.4 -109.6 L 6.4 -109.6 Q 2.6 -106.8 -0.7 -106.1 L -0.7 -106.1 Z M 23.9 -94.6 L 23.9 -94.6 L 24 -92.4 L 24 -92.4 Q 24 -91.8 24.7 -91.8 L 24.7 -91.8 L 24.7 -91.8 Q 27.6 -92.1 29.8 -93.3 L 29.8 -93.3 L 29.8 -93.3 Q 31.9 -94.5 33 -96.1 L 33 -96.1 L 33 -96.1 Q 35.2 -99.4 35.3 -101.8 L 35.3 -101.8 L 35.4 -102.9 L 35.4 -102.9 Q 35.4 -107.8 31.6 -107.8 L 31.6 -107.8 L 31.6 -107.8 Q 28.7 -107.8 26.9 -105.2 L 26.9 -105.2 L 26.9 -105.2 Q 23.9 -101.3 23.9 -94.6 Z M 43.5 -82.6 L 43.5 -82.6 L 43.5 -82.6 Q 43.5 -79.2 42.1 -76.7 L 42.1 -76.7 L 42.1 -76.7 Q 40.7 -74.1 39 -72.9 L 39 -72.9 L 39 -72.9 Q 37.2 -71.7 34.9 -70.9 L 34.9 -70.9 L 34.9 -70.9 Q 31.9 -70 29.2 -70 L 29.2 -70 L 29.2 -70 Q 21.7 -70 18.1 -75.7 L 18.1 -75.7 L 18.1 -75.7 Q 14.5 -81.4 14.5 -90.2 L 14.5 -90.2 L 14.5 -90.2 Q 14.5 -98.9 18.9 -105.8 L 18.9 -105.8 L 18.9 -105.8 Q 23.4 -112.6 32.3 -112.6 L 32.3 -112.6 L 32.3 -112.6 Q 40.4 -112.6 43.3 -106.9 L 43.3 -106.9 L 43.3 -106.9 Q 44.4 -104.8 44.4 -102.8 L 44.4 -102.8 L 44.4 -102.8 Q 44.4 -100.9 44.3 -99.8 L 44.3 -99.8 L 44.3 -99.8 Q 44.1 -98.7 43 -96.4 L 43 -96.4 L 43 -96.4 Q 41.9 -94.2 40.1 -92.4 L 40.1 -92.4 L 40.1 -92.4 Q 38.3 -90.6 34.4 -88.9 L 34.4 -88.9 L 34.4 -88.9 Q 30.6 -87.3 25.4 -86.8 L 25.4 -86.8 L 25.4 -86.8 Q 24.6 -86.8 24.6 -86.2 L 24.6 -86.2 L 24.6 -86.2 Q 24.6 -85.3 25.2 -83.8 L 25.2 -83.8 L 25.2 -83.8 Q 25.8 -82.2 26.5 -81.1 L 26.5 -81.1 L 26.5 -81.1 Q 28.5 -78.6 32.4 -78.6 L 32.4 -78.6 L 32.4 -78.6 Q 36.2 -78.6 38.9 -81.1 L 38.9 -81.1 L 38.9 -81.1 Q 40.4 -82.5 41.3 -84.4 L 41.3 -84.4 L 41.3 -84.4 Q 41.6 -85.2 42.2 -85.2 L 42.2 -85.2 L 42.2 -85.2 Q 42.8 -85.2 43.2 -84.2 L 43.2 -84.2 L 43.2 -84.2 Q 43.5 -83.2 43.5 -82.6 Z M 75.8 -84.1 L 75.8 -84.1 L 75.8 -84.1 Q 75.8 -80.2 74.4 -77.3 L 74.4 -77.3 L 74.4 -77.3 Q 72.9 -74.5 71 -73.1 L 71 -73.1 L 71 -73.1 Q 69.1 -71.8 66.5 -70.9 L 66.5 -70.9 L 66.5 -70.9 Q 63.1 -69.9 60.3 -69.9 L 60.3 -69.9 L 60.3 -69.9 Q 54.4 -69.9 50.6 -72.2 L 50.6 -72.2 L 50.6 -72.2 Q 46.7 -74.5 46.7 -79.5 L 46.7 -79.5 L 46.7 -79.5 Q 46.7 -82.5 48.3 -84.4 L 48.3 -84.4 L 48.3 -84.4 Q 50.8 -87.1 54.3 -87.1 L 54.3 -87.1 L 54.3 -87.1 Q 55.4 -87.1 55.4 -86.2 L 55.4 -86.2 L 55.4 -86.2 Q 55.4 -86.1 55 -84.8 L 55 -84.8 L 55 -84.8 Q 54.6 -83.5 54.6 -81.5 L 54.6 -81.5 L 54.6 -81.5 Q 54.6 -79.5 56.2 -78 L 56.2 -78 L 56.2 -78 Q 57.8 -76.4 60 -76.4 L 60 -76.4 L 60 -76.4 Q 62.3 -76.4 63.6 -77.2 L 63.6 -77.2 L 63.6 -77.2 Q 65 -78 65.5 -79.1 L 65.5 -79.1 L 65.5 -79.1 Q 66.3 -80.8 66.3 -82.2 L 66.3 -82.2 L 66.3 -82.2 Q 66.3 -84.8 63.7 -86.7 L 63.7 -86.7 L 63.7 -86.7 Q 61.1 -88.6 57.9 -89.7 L 57.9 -89.7 L 57.9 -89.7 Q 54.8 -90.7 52.2 -93.3 L 52.2 -93.3 L 52.2 -93.3 Q 49.6 -95.8 49.6 -99.6 L 49.6 -99.6 L 49.6 -99.6 Q 49.6 -106 53.7 -109.3 L 53.7 -109.3 L 53.7 -109.3 Q 57.8 -112.5 64.8 -112.5 L 64.8 -112.5 L 64.8 -112.5 Q 67.8 -112.5 71.2 -111.7 L 71.2 -111.7 L 71.2 -111.7 Q 74.6 -110.8 74.6 -108.8 L 74.6 -108.8 L 74.6 -108.8 Q 74.6 -106.8 73.9 -105.1 L 73.9 -105.1 L 73.9 -105.1 Q 73.2 -103.3 72.2 -103.3 L 72.2 -103.3 L 72.2 -103.3 Q 71.7 -103.3 71.5 -103.7 L 71.5 -103.7 L 71.5 -103.7 Q 71.3 -104.2 70.9 -104.7 L 70.9 -104.7 L 70.9 -104.7 Q 70.4 -105.2 68.7 -106.1 L 68.7 -106.1 L 68.7 -106.1 Q 67 -106.9 65.8 -106.9 L 65.8 -106.9 L 65.8 -106.9 Q 64.6 -106.9 64.2 -106.9 L 64.2 -106.9 L 64.2 -106.9 Q 63.8 -106.9 62.8 -106.6 L 62.8 -106.6 L 62.8 -106.6 Q 61.8 -106.4 61 -106 L 61 -106 L 61 -106 Q 58.9 -104.8 58.9 -102.5 L 58.9 -102.5 L 58.9 -102.5 Q 58.9 -101.1 59.6 -100.4 L 59.6 -100.4 L 59.6 -100.4 Q 60.2 -99.7 60.5 -99.4 L 60.5 -99.4 L 60.5 -99.4 Q 60.9 -99 61.8 -98.5 L 61.8 -98.5 L 61.8 -98.5 Q 62.7 -98 63.1 -97.9 L 63.1 -97.9 L 63.1 -97.9 Q 63.4 -97.7 64.7 -97.1 L 64.7 -97.1 L 64.7 -97.1 Q 65.9 -96.5 66.3 -96.3 L 66.3 -96.3 L 66.3 -96.3 Q 75.8 -91.8 75.8 -84.1 Z M 88.3 -105.7 L 88.3 -105.7 L 88.3 -105.7 Q 85.9 -105.6 84.9 -105.6 L 84.9 -105.6 L 84.9 -105.6 Q 83.9 -105.5 83.9 -106 L 83.9 -106 L 83.9 -106 Q 83.9 -106.6 84.4 -107.1 L 84.4 -107.1 L 84.4 -107.1 Q 90.2 -112.4 103.8 -112.4 L 103.8 -112.4 L 103.8 -112.4 Q 108.5 -112.4 111.2 -111.6 L 111.2 -111.6 L 112.1 -111.4 L 112.1 -111.4 Q 113.2 -110.9 113.2 -110.4 L 113.2 -110.4 L 113.2 -110.4 Q 113.2 -109.9 112.6 -109.6 L 112.6 -109.6 L 112.6 -109.6 Q 110.1 -108.9 107.9 -107.3 L 107.9 -107.3 L 107.9 -107.3 Q 105.6 -105.8 105.6 -105.1 L 105.6 -105.1 L 106.2 -104.5 L 106.2 -104.5 Q 109.1 -102.9 110.6 -99.4 L 110.6 -99.4 L 110.6 -99.4 Q 112.2 -95.9 112.4 -93.2 L 112.4 -93.2 L 112.6 -90.4 L 112.6 -90.4 Q 112.6 -81.5 107.6 -75.7 L 107.6 -75.7 L 107.6 -75.7 Q 102.7 -70 94.1 -70 L 94.1 -70 L 94.1 -70 Q 89.8 -70 86.6 -71.5 L 86.6 -71.5 L 86.6 -71.5 Q 83.5 -73 82 -74.9 L 82 -74.9 L 82 -74.9 Q 80.5 -76.9 79.6 -79.3 L 79.6 -79.3 L 79.6 -79.3 Q 78.5 -82.6 78.5 -86.2 L 78.5 -86.2 L 78.5 -86.2 Q 78.5 -89.8 79.8 -93.4 L 79.8 -93.4 L 79.8 -93.4 Q 81 -97 82.5 -98.7 L 82.5 -98.7 L 82.5 -98.7 Q 84.1 -100.4 86.1 -101.5 L 86.1 -101.5 L 86.1 -101.5 Q 88.6 -102.8 90.2 -102.8 L 90.2 -102.8 L 90.2 -102.8 Q 91.7 -102.8 91.7 -102.2 L 91.7 -102.2 L 91.1 -101.3 L 91.1 -101.3 Q 89.2 -98.9 88.3 -95.2 L 88.3 -95.2 L 88.3 -95.2 Q 87.5 -91.4 87.5 -88.5 L 87.5 -88.5 L 87.5 -88.5 Q 87.5 -85.5 88.2 -82.6 L 88.2 -82.6 L 88.2 -82.6 Q 88.9 -79.8 89.8 -78.4 L 89.8 -78.4 L 89.8 -78.4 Q 90.7 -77 91.9 -76.3 L 91.9 -76.3 L 91.9 -76.3 Q 93.6 -75.2 95.5 -75.2 L 95.5 -75.2 L 95.5 -75.2 Q 97.4 -75.2 99.2 -76.7 L 99.2 -76.7 L 99.2 -76.7 Q 101 -78.1 101.8 -80.6 L 101.8 -80.6 L 101.8 -80.6 Q 103.4 -85.1 103.4 -89.8 L 103.4 -89.8 L 103.4 -89.8 Q 103.4 -97.4 99.6 -101.5 L 99.6 -101.5 L 99.6 -101.5 Q 95.7 -105.7 88.3 -105.7 Z M 144.2 -102.7 L 143.8 -95.9 L 144.2 -92.7 L 144.2 -92.7 Q 144.2 -91 140.9 -91 L 140.9 -91 L 140.9 -91 Q 134.3 -91 134.3 -96 L 134.3 -96 L 134.3 -96 Q 134.3 -97.1 135 -99.2 L 135 -99.2 L 135 -99.2 Q 135.6 -101.3 135.6 -102.8 L 135.6 -102.8 L 135.6 -102.8 Q 135.6 -104.3 134.7 -105.5 L 134.7 -105.5 L 134.7 -105.5 Q 133.8 -106.6 132.1 -106.6 L 132.1 -106.6 L 132.1 -106.6 Q 130.4 -106.6 129.2 -105.4 L 129.2 -105.4 L 129.2 -105.4 Q 128 -104.2 127.7 -102.9 L 127.7 -102.9 L 127.3 -101.6 L 127.3 -101.6 Q 126.8 -98.8 126.8 -92.3 L 126.8 -92.3 L 126.8 -92.3 Q 126.8 -85.8 127 -82.1 L 127 -82.1 L 127 -82.1 Q 127.1 -78.3 127.3 -76.9 L 127.3 -76.9 L 127.3 -76.9 Q 127.5 -75.5 127.5 -75.3 L 127.5 -75.3 L 127.5 -75.3 Q 127.5 -73 124.7 -71.6 L 124.7 -71.6 L 124.7 -71.6 Q 121.9 -70.2 119.1 -70.2 L 119.1 -70.2 L 119.1 -70.2 Q 116.3 -70.2 116.3 -71.4 L 116.3 -71.4 L 116.8 -74.2 L 116.8 -74.2 Q 118.1 -82 118.1 -94.6 L 118.1 -94.6 L 118.1 -94.6 Q 118.1 -107.2 117.2 -111.7 L 117.2 -111.7 L 117.2 -111.7 Q 117.2 -112.8 119 -112.8 L 119 -112.8 L 119 -112.8 Q 123.9 -112.8 125.5 -109.5 L 125.5 -109.5 L 125.5 -109.5 Q 125.6 -109.1 125.8 -109.1 L 125.8 -109.1 L 125.8 -109.1 Q 126.1 -109.1 127.1 -109.9 L 127.1 -109.9 L 127.1 -109.9 Q 130 -112.3 134.1 -112.3 L 134.1 -112.3 L 134.1 -112.3 Q 136.6 -112.3 139.1 -111.4 L 139.1 -111.4 L 139.1 -111.4 Q 144.2 -109.3 144.2 -102.7 L 144.2 -102.7 Z M 146.9 -106.9 L 146.9 -106.9 L 147.2 -110.5 L 147.2 -110.5 Q 147.3 -111.3 148.5 -111.3 L 148.5 -111.3 L 151.6 -111.3 L 151.3 -118.5 L 151.3 -118.8 L 151.3 -118.8 Q 151.3 -120.9 154.4 -122.8 L 154.4 -122.8 L 154.4 -122.8 Q 157.6 -124.7 160.2 -124.7 L 160.2 -124.7 L 160.2 -124.7 Q 161 -124.7 161 -124 L 161 -124 L 161 -123.9 L 161 -123.9 Q 160.6 -121.4 160.3 -111.4 L 160.3 -111.4 L 160.3 -111.4 Q 164.2 -111.4 165.3 -111.5 L 165.3 -111.5 L 165.3 -111.5 Q 166.4 -111.7 166.5 -111.7 L 166.5 -111.7 L 166.5 -111.7 Q 167.1 -111.7 167.1 -110.6 L 167.1 -110.6 L 167.1 -110.6 Q 167.1 -109.6 166.1 -107.9 L 166.1 -107.9 L 166.1 -107.9 Q 165.1 -106.2 164 -106.1 L 164 -106.1 L 160.2 -106.1 L 160.2 -106.1 Q 160.1 -103.1 160.1 -95.8 L 160.1 -95.8 L 160.1 -95.8 Q 160.1 -88.6 160.2 -83.9 L 160.2 -83.9 L 160.2 -83.9 Q 160.4 -79.2 160.5 -76.8 L 160.5 -76.8 L 160.5 -76.8 Q 160.7 -74.5 160.9 -73 L 160.9 -73 L 160.9 -73 Q 161.2 -71.6 161.3 -70.9 L 161.3 -70.9 L 161.3 -70.9 Q 161.4 -70.3 161.4 -70.1 L 161.4 -70.1 L 161.4 -70.1 Q 161.4 -69.2 160.3 -69.1 L 160.3 -69.1 L 160.3 -69.1 Q 156.8 -69.1 153.3 -70.1 L 153.3 -70.1 L 153.3 -70.1 Q 149.8 -71.1 149.8 -73.6 L 149.8 -73.6 L 149.8 -73.6 Q 151.7 -88.7 151.7 -106 L 151.7 -106 L 151.7 -106 Q 149.3 -106 148 -105.9 L 148 -105.9 L 147.9 -105.9 L 147.9 -105.9 Q 147.1 -105.9 146.9 -106.9 Z M 176.1 -94.6 L 176.1 -94.6 L 176.2 -92.4 L 176.2 -92.4 Q 176.2 -91.8 176.9 -91.8 L 176.9 -91.8 L 176.9 -91.8 Q 179.8 -92.1 182 -93.3 L 182 -93.3 L 182 -93.3 Q 184.1 -94.5 185.2 -96.1 L 185.2 -96.1 L 185.2 -96.1 Q 187.4 -99.4 187.5 -101.8 L 187.5 -101.8 L 187.6 -102.9 L 187.6 -102.9 Q 187.6 -107.8 183.8 -107.8 L 183.8 -107.8 L 183.8 -107.8 Q 180.9 -107.8 179.1 -105.2 L 179.1 -105.2 L 179.1 -105.2 Q 176.1 -101.3 176.1 -94.6 Z M 195.7 -82.6 L 195.7 -82.6 L 195.7 -82.6 Q 195.7 -79.2 194.3 -76.7 L 194.3 -76.7 L 194.3 -76.7 Q 192.9 -74.1 191.2 -72.9 L 191.2 -72.9 L 191.2 -72.9 Q 189.4 -71.7 187.1 -70.9 L 187.1 -70.9 L 187.1 -70.9 Q 184.1 -70 181.4 -70 L 181.4 -70 L 181.4 -70 Q 173.9 -70 170.3 -75.7 L 170.3 -75.7 L 170.3 -75.7 Q 166.7 -81.4 166.7 -90.2 L 166.7 -90.2 L 166.7 -90.2 Q 166.7 -98.9 171.1 -105.8 L 171.1 -105.8 L 171.1 -105.8 Q 175.6 -112.6 184.5 -112.6 L 184.5 -112.6 L 184.5 -112.6 Q 192.6 -112.6 195.5 -106.9 L 195.5 -106.9 L 195.5 -106.9 Q 196.6 -104.8 196.6 -102.8 L 196.6 -102.8 L 196.6 -102.8 Q 196.6 -100.9 196.4 -99.8 L 196.4 -99.8 L 196.4 -99.8 Q 196.3 -98.7 195.2 -96.4 L 195.2 -96.4 L 195.2 -96.4 Q 194.1 -94.2 192.3 -92.4 L 192.3 -92.4 L 192.3 -92.4 Q 190.5 -90.6 186.6 -88.9 L 186.6 -88.9 L 186.6 -88.9 Q 182.8 -87.3 177.5 -86.8 L 177.5 -86.8 L 177.5 -86.8 Q 176.8 -86.8 176.8 -86.2 L 176.8 -86.2 L 176.8 -86.2 Q 176.8 -85.3 177.4 -83.8 L 177.4 -83.8 L 177.4 -83.8 Q 178 -82.2 178.7 -81.1 L 178.7 -81.1 L 178.7 -81.1 Q 180.7 -78.6 184.6 -78.6 L 184.6 -78.6 L 184.6 -78.6 Q 188.4 -78.6 191.1 -81.1 L 191.1 -81.1 L 191.1 -81.1 Q 192.6 -82.5 193.5 -84.4 L 193.5 -84.4 L 193.5 -84.4 Q 193.8 -85.2 194.4 -85.2 L 194.4 -85.2 L 194.4 -85.2 Q 195 -85.2 195.4 -84.2 L 195.4 -84.2 L 195.4 -84.2 Q 195.7 -83.2 195.7 -82.6 Z M 227.7 -102.7 L 227.2 -95.9 L 227.6 -92.7 L 227.6 -92.7 Q 227.6 -91 224.3 -91 L 224.3 -91 L 224.3 -91 Q 217.8 -91 217.8 -96 L 217.8 -96 L 217.8 -96 Q 217.8 -97.1 218.4 -99.2 L 218.4 -99.2 L 218.4 -99.2 Q 219 -101.3 219 -102.8 L 219 -102.8 L 219 -102.8 Q 219 -104.3 218.1 -105.5 L 218.1 -105.5 L 218.1 -105.5 Q 217.2 -106.6 215.5 -106.6 L 215.5 -106.6 L 215.5 -106.6 Q 213.8 -106.6 212.6 -105.4 L 212.6 -105.4 L 212.6 -105.4 Q 211.4 -104.2 211.1 -102.9 L 211.1 -102.9 L 210.8 -101.6 L 210.8 -101.6 Q 210.2 -98.8 210.2 -92.3 L 210.2 -92.3 L 210.2 -92.3 Q 210.2 -85.8 210.4 -82.1 L 210.4 -82.1 L 210.4 -82.1 Q 210.6 -78.3 210.8 -76.9 L 210.8 -76.9 L 210.8 -76.9 Q 210.9 -75.5 210.9 -75.3 L 210.9 -75.3 L 210.9 -75.3 Q 210.9 -73 208.1 -71.6 L 208.1 -71.6 L 208.1 -71.6 Q 205.4 -70.2 202.6 -70.2 L 202.6 -70.2 L 202.6 -70.2 Q 199.8 -70.2 199.8 -71.4 L 199.8 -71.4 L 200.2 -74.2 L 200.2 -74.2 Q 201.5 -82 201.5 -94.6 L 201.5 -94.6 L 201.5 -94.6 Q 201.5 -107.2 200.6 -111.7 L 200.6 -111.7 L 200.6 -111.7 Q 200.6 -112.8 202.5 -112.8 L 202.5 -112.8 L 202.5 -112.8 Q 207.3 -112.8 209 -109.5 L 209 -109.5 L 209 -109.5 Q 209 -109.1 209.3 -109.1 L 209.3 -109.1 L 209.3 -109.1 Q 209.5 -109.1 210.5 -109.9 L 210.5 -109.9 L 210.5 -109.9 Q 213.5 -112.3 217.5 -112.3 L 217.5 -112.3 L 217.5 -112.3 Q 220 -112.3 222.5 -111.4 L 222.5 -111.4 L 222.5 -111.4 Q 227.7 -109.3 227.7 -102.7 L 227.7 -102.7 Z" fill="url(#editing-glowing-gradient)"></path></g></g><style>text {
  font-size: 64px;
  font-family: Arial Black;
  dominant-baseline: central;
  text-anchor: middle;
}</style></svg>